Sleepers*1996*[DVD9][PAL][ENG, POL]

General information:
Country: USA
Release: 18 October 1996
Genre: Crime, Drama, Thriller 
Director: Barry Levinson
Screenplay: Barry Levinson, Lorenzo Carcaterra (book)
Original Music: John Williams
Cinematography by: Michael Ballhaus
Duration: 2h 47mn
Language: English, POlish
Subtitles: Polish
Rating: 8.2/10 - 17469 votes

Cast:
Kevin Bacon  ...  Sean Nokes  
Billy Crudup  ...  Tommy Marcano  
Robert De Niro  ...  Father Bobby  
Ron Eldard  ...  John Reilly  
Minnie Driver  ...  Carol Martinez  
Vittorio Gassman  ...  King Benny  
Dustin Hoffman  ...  Danny Snyder  
Terry Kinney  ...  Ralph Ferguson  
Bruno Kirby  ...  Shakes' Father  
Frank Medrano  ...  Fat Mancho  
Jason Patric  ...  Lorenzo 'Shakes' Carcaterra  
Joseph Perrino  ...  Young Lorenzo 'Shakes' Carcaterra (as Joe Perrino)  
Brad Pitt  ...  Michael Sullivan  
Brad Renfro  ...  Young Michael Sullivan  
Geoffrey Wigdor  ...  Young John Reilly  

Plot:
After a prank goes disastrously wrong, a group of boys are sent to a detention center where they are brutalized; over 10 years later, they get their chance for revenge. 

Specifications:
General
Format                           : MPEG-PS
Overall bit rate                 : 6 198 Kbps

Video
Format                           : MPEG Video
Format version                   : Version 2
Format profile                   : Main@Main
Format settings, BVOP            : Yes
Format settings, Matrix          : Default
Format settings, GOP             : M=3, N=13
Bit rate mode                    : Variable
Bit rate                         : 4 955 Kbps
Nominal bit rate                 : 8 000 Kbps
Width                            : 720 pixels
Height                           : 576 pixels
Display aspect ratio             : 16:9
Frame rate                       : 25.000 fps
Standard                         : PAL

Audio 1
Format                           : AC-3
Format/Info                      : Audio Coding 3
Mode extension                   : CM (complete main)
Bit rate mode                    : Constant
Bit rate                         : 448 Kbps
Channel(s)                       : 6 channels
Channel positions                : Front: L C R, Side: L R, LFE
Sampling rate                    : 48.0 KHz
Video delay                      : -208ms
Stream size                      : 74.0 MiB (7%)

Audio 2
Format                           : AC-3
Format/Info                      : Audio Coding 3
Mode extension                   : CM (complete main)
Bit rate mode                    : Constant
Bit rate                         : 448 Kbps
Channel(s)                       : 6 channels
Channel positions                : Front: L C R, Side: L R, LFE
Sampling rate                    : 48.0 KHz
Video delay                      : -208ms
Stream size                      : 74.0 MiB (7%)

Text
Format                           : RLE
Format/Info                      : Run-length encoding
